<svg xmlns="http://www.w3.org/2000/svg" width="512" height="512" viewBox="0 0 512 512">
  <defs>
    <linearGradient id="bg" x1="0" y1="0" x2="1" y2="1">
      <stop offset="0%" stop-color="#070b10"/>
      <stop offset="100%" stop-color="#0a2a28"/>
    </linearGradient>
    <linearGradient id="cyan" x1="0" y1="0" x2="0" y2="1">
      <stop offset="0%" stop-color="#5ef0e0"/>
      <stop offset="100%" stop-color="#1ad4c0"/>
    </linearGradient>
  </defs>
  <rect width="512" height="512" rx="96" fill="url(#bg)"/>
  <rect x="36" y="36" width="440" height="440" rx="72" fill="none" stroke="#1ad4c0" stroke-opacity="0.35" stroke-width="8"/>
  <!-- Mark C -->
  <path d="M330 156c-28-28-66-44-108-44-84 0-152 68-152 152s68 152 152 152c42 0 80-16 108-44l-36-40c-18 18-42 28-72 28-52 0-94-42-94-96s42-96 94-96c30 0 54 10 72 28l36-40z" fill="url(#cyan)"/>
  <!-- Accent bar -->
  <rect x="196" y="400" width="120" height="14" rx="7" fill="#e8a23a"/>
</svg>
